<?xml version="1.0" encoding="UTF-8"?>
<svg id="_圖層_1" xmlns="http://www.w3.org/2000/svg" xmlns:xlink="http://www.w3.org/1999/xlink" version="1.1" viewBox="0 0 1920 1080">
  <!-- Generator: Adobe Illustrator 30.1.0, SVG Export Plug-In . SVG Version: 2.1.1 Build 136)  -->
  <defs>
    <style>
      .st0, .st1 {
        fill: none;
      }

      .st2 {
        fill: #c39039;
      }

      .st1 {
        stroke: #c39039;
        stroke-miterlimit: 10;
      }

      .st3 {
        clip-path: url(#clippath-1);
      }

      .st4 {
        clip-path: url(#clippath-3);
      }

      .st5 {
        clip-path: url(#clippath-2);
      }

      .st6 {
        fill: #231815;
      }

      .st7 {
        clip-path: url(#clippath);
      }
    </style>
    <clipPath id="clippath">
      <path class="st0" d="M769.05,652.27c5.43,0,7.56-2.99,8.96-7.89,1.68-6.25,9.4-41.57,10.99-46.68,2.01-6.42,6.41-9.86,11.31-9.86,10.06,0,16.03,8.97,25,8.97s14.95-8.97,25-8.97c4.31,0,9.88.78,12.65,7.82,1.92,4.88,6.58,20.18,6.58,20.18,1.55,5.16,4.96,7.06,9.04,7.06s7.49-1.9,9.04-7.06c1.81-5.71,5.32-15.46,7.49-21.44,3.54-10.06,11.47-12.54,19.9-13.08l63.88-4.08v-4.62l-64.42-7.07c-11.95-1.36-17.4-3.54-18.76-11.95-.81-4.35-2.18-16.31-3.81-29.08-2.17-17.4-4.62-36.7-5.43-41.32-1.09-6.25-4.62-8.43-8.7-8.43s-7.89,2.17-8.7,8.43c-.81,4.89-2.99,22.29-5.16,39.14-1.36,11.41-2.72,22.29-4.08,29.35-.81,4.35-4.35,7.34-8.97,7.34-8.16,0-14.68-8.16-25.55-8.16s-17.67,8.16-25.82,8.16c-5.16,0-8.43-3.54-8.97-8.16-.81-6.52-1.9-20.11-3.54-35.6-2.45-27.73-5.98-61.97-7.89-73.38-1.09-6.25-4.62-8.16-8.7-8.16s-7.61,1.9-8.7,8.16c-1.9,11.41-5.71,46.21-8.7,74.21-1.63,15.49-2.99,28.81-4.35,35.33-1.9,10.87-9.78,11.96-19.3,12.51l-133.19,7.61v4.62l133.19,7.89c13.05.81,18.14,3.88,20.79,14.75,1.92,7.88,5.74,26.01,9.94,45.58,1.12,4.89,3.53,7.89,8.96,7.89h.02Z"/>
    </clipPath>
    <clipPath id="clippath-1">
      <path class="st0" d="M1148.33,652.27c5.43,0,7.56-2.99,8.96-7.89,1.68-6.25,9.4-41.57,10.99-46.68,2.01-6.42,6.41-9.86,11.31-9.86,10.06,0,16.03,8.97,25,8.97s14.95-8.97,25-8.97c4.31,0,9.88.78,12.65,7.82,1.92,4.88,6.58,20.18,6.58,20.18,1.55,5.16,4.96,7.06,9.04,7.06s7.49-1.9,9.04-7.06c1.81-5.71,5.32-15.46,7.49-21.44,3.54-10.06,11.47-12.54,19.9-13.08l63.88-4.08v-4.62l-64.42-7.07c-11.95-1.36-17.4-3.54-18.76-11.95-.81-4.35-2.18-16.31-3.81-29.08-2.17-17.4-4.62-36.7-5.43-41.32-1.09-6.25-4.62-8.43-8.7-8.43s-7.89,2.17-8.7,8.43c-.81,4.89-2.99,22.29-5.16,39.14-1.36,11.41-2.71,22.29-4.08,29.35-.81,4.35-4.35,7.34-8.97,7.34-8.16,0-14.68-8.16-25.55-8.16s-17.67,8.16-25.82,8.16c-5.16,0-8.43-3.54-8.97-8.16-.81-6.52-1.9-20.11-3.54-35.6-2.45-27.73-5.98-61.97-7.89-73.38-1.09-6.25-4.62-8.16-8.7-8.16s-7.61,1.9-8.7,8.16c-1.9,11.41-5.71,46.21-8.7,74.21-1.63,15.49-2.99,28.81-4.35,35.33-1.9,10.87-9.78,11.96-19.3,12.51l-133.19,7.61v4.62l133.19,7.89c13.05.81,18.14,3.88,20.79,14.75,1.92,7.88,5.74,26.01,9.94,45.58,1.12,4.89,3.53,7.89,8.96,7.89h.02Z"/>
    </clipPath>
    <clipPath id="clippath-2">
      <path class="st0" d="M385.91,652.27c5.43,0,7.56-2.99,8.96-7.89,1.68-6.25,9.4-41.57,10.99-46.68,2.01-6.42,6.41-9.86,11.31-9.86,10.06,0,16.03,8.97,25,8.97s14.95-8.97,25-8.97c4.31,0,9.88.78,12.65,7.82,1.92,4.88,6.58,20.18,6.58,20.18,1.55,5.16,4.96,7.06,9.04,7.06s7.49-1.9,9.04-7.06c1.81-5.71,5.32-15.46,7.49-21.44,3.54-10.06,11.47-12.54,19.9-13.08l63.88-4.08v-4.62l-64.42-7.07c-11.95-1.36-17.4-3.54-18.76-11.95-.81-4.35-2.18-16.31-3.81-29.08-2.17-17.4-4.62-36.7-5.43-41.32-1.09-6.25-4.62-8.43-8.7-8.43s-7.89,2.17-8.7,8.43c-.81,4.89-2.99,22.29-5.16,39.14-1.36,11.41-2.71,22.29-4.08,29.35-.81,4.35-4.35,7.34-8.97,7.34-8.16,0-14.68-8.16-25.55-8.16s-17.67,8.16-25.82,8.16c-5.16,0-8.43-3.54-8.97-8.16-.81-6.52-1.9-20.11-3.54-35.6-2.45-27.73-5.98-61.97-7.89-73.38-1.09-6.25-4.62-8.16-8.7-8.16s-7.61,1.9-8.7,8.16c-1.9,11.41-5.71,46.21-8.7,74.21-1.63,15.49-2.99,28.81-4.35,35.33-1.9,10.87-9.78,11.96-19.3,12.51l-133.19,7.61v4.62l133.19,7.89c13.05.81,18.14,3.88,20.79,14.75,1.92,7.88,5.74,26.01,9.94,45.58,1.12,4.89,3.53,7.89,8.96,7.89h.02Z"/>
    </clipPath>
    <clipPath id="clippath-3">
      <path class="st0" d="M1527.98,652.27c5.43,0,7.56-2.99,8.96-7.89,1.68-6.25,9.4-41.57,10.99-46.68,2.01-6.42,6.41-9.86,11.31-9.86,10.06,0,16.03,8.97,25,8.97s14.95-8.97,25-8.97c4.31,0,9.88.78,12.65,7.82,1.92,4.88,6.58,20.18,6.58,20.18,1.55,5.16,4.96,7.06,9.04,7.06s7.49-1.9,9.04-7.06c1.81-5.71,5.32-15.46,7.49-21.44,3.54-10.06,11.47-12.54,19.9-13.08l63.88-4.08v-4.62l-64.42-7.07c-11.95-1.36-17.4-3.54-18.76-11.95-.81-4.35-2.18-16.31-3.81-29.08-2.17-17.4-4.62-36.7-5.43-41.32-1.09-6.25-4.62-8.43-8.7-8.43s-7.89,2.17-8.7,8.43c-.81,4.89-2.99,22.29-5.16,39.14-1.36,11.41-2.71,22.29-4.08,29.35-.81,4.35-4.35,7.34-8.97,7.34-8.16,0-14.68-8.16-25.55-8.16s-17.67,8.16-25.82,8.16c-5.16,0-8.43-3.54-8.97-8.16-.81-6.52-1.9-20.11-3.54-35.6-2.45-27.73-5.98-61.97-7.89-73.38-1.09-6.25-4.62-8.16-8.7-8.16s-7.61,1.9-8.7,8.16c-1.9,11.41-5.71,46.21-8.7,74.21-1.63,15.49-2.99,28.81-4.35,35.33-1.9,10.87-9.78,11.96-19.3,12.51l-133.19,7.61v4.62l133.19,7.89c13.05.81,18.14,3.88,20.79,14.75,1.92,7.88,5.74,26.01,9.94,45.58,1.12,4.89,3.53,7.89,8.96,7.89h.02Z"/>
    </clipPath>
  </defs>
  <g>
    <g>
      <g class="st7">
        <g>
          <line class="st1" x1="584.34" y1="417.14" x2="584.34" y2="655.44"/>
          <line class="st1" x1="594.25" y1="417.14" x2="594.25" y2="655.44"/>
          <line class="st1" x1="604.16" y1="417.14" x2="604.16" y2="655.44"/>
          <line class="st1" x1="614.06" y1="417.14" x2="614.06" y2="655.44"/>
          <line class="st1" x1="623.97" y1="417.14" x2="623.97" y2="655.44"/>
          <line class="st1" x1="633.88" y1="417.14" x2="633.88" y2="655.44"/>
          <line class="st1" x1="643.79" y1="417.14" x2="643.79" y2="655.44"/>
          <line class="st1" x1="653.7" y1="417.14" x2="653.7" y2="655.44"/>
          <line class="st1" x1="663.61" y1="417.14" x2="663.61" y2="655.44"/>
          <line class="st1" x1="673.51" y1="417.14" x2="673.51" y2="655.44"/>
          <line class="st1" x1="683.42" y1="417.14" x2="683.42" y2="655.44"/>
          <line class="st1" x1="693.33" y1="417.14" x2="693.33" y2="655.44"/>
          <line class="st1" x1="703.25" y1="417.14" x2="703.25" y2="655.44"/>
          <line class="st1" x1="713.16" y1="417.14" x2="713.16" y2="655.44"/>
          <line class="st1" x1="723.07" y1="417.14" x2="723.07" y2="655.44"/>
          <line class="st1" x1="732.97" y1="417.14" x2="732.97" y2="655.44"/>
          <line class="st1" x1="742.88" y1="417.14" x2="742.88" y2="655.44"/>
          <line class="st1" x1="752.79" y1="417.14" x2="752.79" y2="655.44"/>
          <line class="st1" x1="762.7" y1="417.14" x2="762.7" y2="655.44"/>
          <line class="st1" x1="772.61" y1="417.14" x2="772.61" y2="655.44"/>
          <line class="st1" x1="782.51" y1="417.14" x2="782.51" y2="655.44"/>
          <line class="st1" x1="792.42" y1="417.14" x2="792.42" y2="655.44"/>
          <line class="st1" x1="802.33" y1="417.14" x2="802.33" y2="655.44"/>
          <line class="st1" x1="812.24" y1="417.14" x2="812.24" y2="655.44"/>
          <line class="st1" x1="822.15" y1="417.14" x2="822.15" y2="655.44"/>
          <line class="st1" x1="832.06" y1="417.14" x2="832.06" y2="655.44"/>
          <line class="st1" x1="841.96" y1="417.14" x2="841.96" y2="655.44"/>
          <line class="st1" x1="851.87" y1="417.14" x2="851.87" y2="655.44"/>
          <line class="st1" x1="861.78" y1="417.14" x2="861.78" y2="655.44"/>
          <line class="st1" x1="871.69" y1="417.14" x2="871.69" y2="655.44"/>
          <line class="st1" x1="881.6" y1="417.14" x2="881.6" y2="655.44"/>
          <line class="st1" x1="891.51" y1="417.14" x2="891.51" y2="655.44"/>
          <line class="st1" x1="901.42" y1="417.14" x2="901.42" y2="655.44"/>
          <line class="st1" x1="911.33" y1="417.14" x2="911.33" y2="655.44"/>
          <line class="st1" x1="921.24" y1="417.14" x2="921.24" y2="655.44"/>
          <line class="st1" x1="931.15" y1="417.14" x2="931.15" y2="655.44"/>
          <line class="st1" x1="941.06" y1="417.14" x2="941.06" y2="655.44"/>
          <line class="st1" x1="950.97" y1="417.14" x2="950.97" y2="655.44"/>
          <line class="st1" x1="960.87" y1="417.14" x2="960.87" y2="655.44"/>
          <line class="st1" x1="970.78" y1="417.14" x2="970.78" y2="655.44"/>
          <line class="st1" x1="980.69" y1="417.14" x2="980.69" y2="655.44"/>
          <line class="st1" x1="990.6" y1="417.14" x2="990.6" y2="655.44"/>
          <line class="st1" x1="1000.51" y1="417.14" x2="1000.51" y2="655.44"/>
          <line class="st1" x1="1010.42" y1="417.14" x2="1010.42" y2="655.44"/>
          <line class="st1" x1="1020.32" y1="417.14" x2="1020.32" y2="655.44"/>
        </g>
      </g>
      <g class="st3">
        <g>
          <line class="st1" x1="963.62" y1="417.14" x2="963.62" y2="655.44"/>
          <line class="st1" x1="973.53" y1="417.14" x2="973.53" y2="655.44"/>
          <line class="st1" x1="983.44" y1="417.14" x2="983.44" y2="655.44"/>
          <line class="st1" x1="993.35" y1="417.14" x2="993.35" y2="655.44"/>
          <line class="st1" x1="1003.25" y1="417.14" x2="1003.25" y2="655.44"/>
          <line class="st1" x1="1013.16" y1="417.14" x2="1013.16" y2="655.44"/>
          <line class="st1" x1="1023.07" y1="417.14" x2="1023.07" y2="655.44"/>
          <line class="st1" x1="1032.98" y1="417.14" x2="1032.98" y2="655.44"/>
          <line class="st1" x1="1042.89" y1="417.14" x2="1042.89" y2="655.44"/>
          <line class="st1" x1="1052.8" y1="417.14" x2="1052.8" y2="655.44"/>
          <line class="st1" x1="1062.71" y1="417.14" x2="1062.71" y2="655.44"/>
          <line class="st1" x1="1072.62" y1="417.14" x2="1072.62" y2="655.44"/>
          <line class="st1" x1="1082.53" y1="417.14" x2="1082.53" y2="655.44"/>
          <line class="st1" x1="1092.44" y1="417.14" x2="1092.44" y2="655.44"/>
          <line class="st1" x1="1102.35" y1="417.14" x2="1102.35" y2="655.44"/>
          <line class="st1" x1="1112.26" y1="417.14" x2="1112.26" y2="655.44"/>
          <line class="st1" x1="1122.16" y1="417.14" x2="1122.16" y2="655.44"/>
          <line class="st1" x1="1132.07" y1="417.14" x2="1132.07" y2="655.44"/>
          <line class="st1" x1="1141.98" y1="417.14" x2="1141.98" y2="655.44"/>
          <line class="st1" x1="1151.89" y1="417.14" x2="1151.89" y2="655.44"/>
          <line class="st1" x1="1161.8" y1="417.14" x2="1161.8" y2="655.44"/>
          <line class="st1" x1="1171.71" y1="417.14" x2="1171.71" y2="655.44"/>
          <line class="st1" x1="1181.61" y1="417.14" x2="1181.61" y2="655.44"/>
          <line class="st1" x1="1191.52" y1="417.14" x2="1191.52" y2="655.44"/>
          <line class="st1" x1="1201.43" y1="417.14" x2="1201.43" y2="655.44"/>
          <line class="st1" x1="1211.34" y1="417.14" x2="1211.34" y2="655.44"/>
          <line class="st1" x1="1221.25" y1="417.14" x2="1221.25" y2="655.44"/>
          <line class="st1" x1="1231.16" y1="417.14" x2="1231.16" y2="655.44"/>
          <line class="st1" x1="1241.06" y1="417.14" x2="1241.06" y2="655.44"/>
          <line class="st1" x1="1250.97" y1="417.14" x2="1250.97" y2="655.44"/>
          <line class="st1" x1="1260.89" y1="417.14" x2="1260.89" y2="655.44"/>
          <line class="st1" x1="1270.8" y1="417.14" x2="1270.8" y2="655.44"/>
          <line class="st1" x1="1280.71" y1="417.14" x2="1280.71" y2="655.44"/>
          <line class="st1" x1="1290.61" y1="417.14" x2="1290.61" y2="655.44"/>
          <line class="st1" x1="1300.52" y1="417.14" x2="1300.52" y2="655.44"/>
          <line class="st1" x1="1310.43" y1="417.14" x2="1310.43" y2="655.44"/>
          <line class="st1" x1="1320.34" y1="417.14" x2="1320.34" y2="655.44"/>
          <line class="st1" x1="1330.25" y1="417.14" x2="1330.25" y2="655.44"/>
          <line class="st1" x1="1340.16" y1="417.14" x2="1340.16" y2="655.44"/>
          <line class="st1" x1="1350.06" y1="417.14" x2="1350.06" y2="655.44"/>
          <line class="st1" x1="1359.97" y1="417.14" x2="1359.97" y2="655.44"/>
          <line class="st1" x1="1369.88" y1="417.14" x2="1369.88" y2="655.44"/>
          <line class="st1" x1="1379.79" y1="417.14" x2="1379.79" y2="655.44"/>
          <line class="st1" x1="1389.7" y1="417.14" x2="1389.7" y2="655.44"/>
          <line class="st1" x1="1399.61" y1="417.14" x2="1399.61" y2="655.44"/>
        </g>
      </g>
      <g class="st5">
        <g>
          <line class="st1" x1="201.19" y1="417.14" x2="201.19" y2="655.44"/>
          <line class="st1" x1="211.1" y1="417.14" x2="211.1" y2="655.44"/>
          <line class="st1" x1="221.01" y1="417.14" x2="221.01" y2="655.44"/>
          <line class="st1" x1="230.92" y1="417.14" x2="230.92" y2="655.44"/>
          <line class="st1" x1="240.83" y1="417.14" x2="240.83" y2="655.44"/>
          <line class="st1" x1="250.74" y1="417.14" x2="250.74" y2="655.44"/>
          <line class="st1" x1="260.65" y1="417.14" x2="260.65" y2="655.44"/>
          <line class="st1" x1="270.56" y1="417.14" x2="270.56" y2="655.44"/>
          <line class="st1" x1="280.47" y1="417.14" x2="280.47" y2="655.44"/>
          <line class="st1" x1="290.38" y1="417.14" x2="290.38" y2="655.44"/>
          <line class="st1" x1="300.29" y1="417.14" x2="300.29" y2="655.44"/>
          <line class="st1" x1="310.19" y1="417.14" x2="310.19" y2="655.44"/>
          <line class="st1" x1="320.1" y1="417.14" x2="320.1" y2="655.44"/>
          <line class="st1" x1="330.01" y1="417.14" x2="330.01" y2="655.44"/>
          <line class="st1" x1="339.92" y1="417.14" x2="339.92" y2="655.44"/>
          <line class="st1" x1="349.83" y1="417.14" x2="349.83" y2="655.44"/>
          <line class="st1" x1="359.73" y1="417.14" x2="359.73" y2="655.44"/>
          <line class="st1" x1="369.64" y1="417.14" x2="369.64" y2="655.44"/>
          <line class="st1" x1="379.55" y1="417.14" x2="379.55" y2="655.44"/>
          <line class="st1" x1="389.46" y1="417.14" x2="389.46" y2="655.44"/>
          <line class="st1" x1="399.37" y1="417.14" x2="399.37" y2="655.44"/>
          <line class="st1" x1="409.28" y1="417.14" x2="409.28" y2="655.44"/>
          <line class="st1" x1="419.18" y1="417.14" x2="419.18" y2="655.44"/>
          <line class="st1" x1="429.09" y1="417.14" x2="429.09" y2="655.44"/>
          <line class="st1" x1="439" y1="417.14" x2="439" y2="655.44"/>
          <line class="st1" x1="448.92" y1="417.14" x2="448.92" y2="655.44"/>
          <line class="st1" x1="458.83" y1="417.14" x2="458.83" y2="655.44"/>
          <line class="st1" x1="468.74" y1="417.14" x2="468.74" y2="655.44"/>
          <line class="st1" x1="478.64" y1="417.14" x2="478.64" y2="655.44"/>
          <line class="st1" x1="488.55" y1="417.14" x2="488.55" y2="655.44"/>
          <line class="st1" x1="498.46" y1="417.14" x2="498.46" y2="655.44"/>
          <line class="st1" x1="508.37" y1="417.14" x2="508.37" y2="655.44"/>
          <line class="st1" x1="518.28" y1="417.14" x2="518.28" y2="655.44"/>
          <line class="st1" x1="528.19" y1="417.14" x2="528.19" y2="655.44"/>
          <line class="st1" x1="538.09" y1="417.14" x2="538.09" y2="655.44"/>
          <line class="st1" x1="548" y1="417.14" x2="548" y2="655.44"/>
          <line class="st1" x1="557.91" y1="417.14" x2="557.91" y2="655.44"/>
          <line class="st1" x1="567.82" y1="417.14" x2="567.82" y2="655.44"/>
          <line class="st1" x1="577.73" y1="417.14" x2="577.73" y2="655.44"/>
          <line class="st1" x1="587.64" y1="417.14" x2="587.64" y2="655.44"/>
          <line class="st1" x1="597.54" y1="417.14" x2="597.54" y2="655.44"/>
          <line class="st1" x1="607.45" y1="417.14" x2="607.45" y2="655.44"/>
          <line class="st1" x1="617.36" y1="417.14" x2="617.36" y2="655.44"/>
          <line class="st1" x1="627.27" y1="417.14" x2="627.27" y2="655.44"/>
          <line class="st1" x1="637.19" y1="417.14" x2="637.19" y2="655.44"/>
        </g>
      </g>
    </g>
    <g class="st4">
      <g>
        <line class="st1" x1="1343.27" y1="417.14" x2="1343.27" y2="655.44"/>
        <line class="st1" x1="1353.18" y1="417.14" x2="1353.18" y2="655.44"/>
        <line class="st1" x1="1363.09" y1="417.14" x2="1363.09" y2="655.44"/>
        <line class="st1" x1="1372.99" y1="417.14" x2="1372.99" y2="655.44"/>
        <line class="st1" x1="1382.9" y1="417.14" x2="1382.9" y2="655.44"/>
        <line class="st1" x1="1392.81" y1="417.14" x2="1392.81" y2="655.44"/>
        <line class="st1" x1="1402.72" y1="417.14" x2="1402.72" y2="655.44"/>
        <line class="st1" x1="1412.63" y1="417.14" x2="1412.63" y2="655.44"/>
        <line class="st1" x1="1422.54" y1="417.14" x2="1422.54" y2="655.44"/>
        <line class="st1" x1="1432.44" y1="417.14" x2="1432.44" y2="655.44"/>
        <line class="st1" x1="1442.35" y1="417.14" x2="1442.35" y2="655.44"/>
        <line class="st1" x1="1452.26" y1="417.14" x2="1452.26" y2="655.44"/>
        <line class="st1" x1="1462.18" y1="417.14" x2="1462.18" y2="655.44"/>
        <line class="st1" x1="1472.09" y1="417.14" x2="1472.09" y2="655.44"/>
        <line class="st1" x1="1481.99" y1="417.14" x2="1481.99" y2="655.44"/>
        <line class="st1" x1="1491.9" y1="417.14" x2="1491.9" y2="655.44"/>
        <line class="st1" x1="1501.81" y1="417.14" x2="1501.81" y2="655.44"/>
        <line class="st1" x1="1511.72" y1="417.14" x2="1511.72" y2="655.44"/>
        <line class="st1" x1="1521.63" y1="417.14" x2="1521.63" y2="655.44"/>
        <line class="st1" x1="1531.54" y1="417.14" x2="1531.54" y2="655.44"/>
        <line class="st1" x1="1541.44" y1="417.14" x2="1541.44" y2="655.44"/>
        <line class="st1" x1="1551.35" y1="417.14" x2="1551.35" y2="655.44"/>
        <line class="st1" x1="1561.26" y1="417.14" x2="1561.26" y2="655.44"/>
        <line class="st1" x1="1571.17" y1="417.14" x2="1571.17" y2="655.44"/>
        <line class="st1" x1="1581.08" y1="417.14" x2="1581.08" y2="655.44"/>
        <line class="st1" x1="1590.99" y1="417.14" x2="1590.99" y2="655.44"/>
        <line class="st1" x1="1600.89" y1="417.14" x2="1600.89" y2="655.44"/>
        <line class="st1" x1="1610.8" y1="417.14" x2="1610.8" y2="655.44"/>
        <line class="st1" x1="1620.71" y1="417.14" x2="1620.71" y2="655.44"/>
        <line class="st1" x1="1630.62" y1="417.14" x2="1630.62" y2="655.44"/>
        <line class="st1" x1="1640.53" y1="417.14" x2="1640.53" y2="655.44"/>
        <line class="st1" x1="1650.44" y1="417.14" x2="1650.44" y2="655.44"/>
        <line class="st1" x1="1660.35" y1="417.14" x2="1660.35" y2="655.44"/>
        <line class="st1" x1="1670.26" y1="417.14" x2="1670.26" y2="655.44"/>
        <line class="st1" x1="1680.17" y1="417.14" x2="1680.17" y2="655.44"/>
        <line class="st1" x1="1690.08" y1="417.14" x2="1690.08" y2="655.44"/>
        <line class="st1" x1="1699.99" y1="417.14" x2="1699.99" y2="655.44"/>
        <line class="st1" x1="1709.9" y1="417.14" x2="1709.9" y2="655.44"/>
        <line class="st1" x1="1719.8" y1="417.14" x2="1719.8" y2="655.44"/>
        <line class="st1" x1="1729.71" y1="417.14" x2="1729.71" y2="655.44"/>
        <line class="st1" x1="1739.62" y1="417.14" x2="1739.62" y2="655.44"/>
        <line class="st1" x1="1749.53" y1="417.14" x2="1749.53" y2="655.44"/>
        <line class="st1" x1="1759.44" y1="417.14" x2="1759.44" y2="655.44"/>
        <line class="st1" x1="1769.34" y1="417.14" x2="1769.34" y2="655.44"/>
        <line class="st1" x1="1779.25" y1="417.14" x2="1779.25" y2="655.44"/>
      </g>
    </g>
  </g>
  <g>
    <path class="st6" d="M991.21,572.83h-9.07v.26c.1.02.15.04.22.08.11.08.12.19.13.27v17.43c0,.07-.02.16-.12.23-.06.05-.12.07-.21.08v.26h5.11v-.26c-.1-.02-.15-.04-.22-.08-.12-.09-.13-.2-.13-.29h0v-5.76h4.16c3.83,0,6.76-1.8,6.76-6.1,0-2.63-1.27-6.12-6.61-6.12h-.02ZM990.24,581.48h-3.34v-5.08h3.07c2.22,0,3.29,1.02,3.29,2.52,0,1.92-1.53,2.56-3.02,2.56h0Z"/>
    <path class="st6" d="M1202.06,580.56c-2.37-.98-3.1-1.32-3.29-1.44-.93-.52-1.17-1.04-1.1-1.72.05-.53.51-1.49,3.06-1.36,1.39.07,2.74.77,4.12,1.85.07.05.13.11.15.23.01.08,0,.15-.02.25l.24.12,2.03-3.86-.24-.12c-.06.08-.1.12-.17.16-.13.07-.23.03-.31-.01-2.09-1.73-4.44-2.28-6.43-2.28-2.11,0-3.75.5-5.05,1.43-1.32.95-2.08,2.44-2.08,4.04,0,1.2.42,2.28,1.24,3.19.81.89,2.03,1.67,3.64,2.33,1.32.57,2.17,1.04,2.99,1.44.93.48,1.29.9,1.28,1.63-.02,1.42-1.79,1.63-2.97,1.57-1.41-.08-2.7-.6-4.41-1.87-.04-.04-.08-.1-.09-.19,0-.08,0-.13.04-.23l-.22-.14-2.25,3.71.22.14c.07-.08.11-.11.19-.14.14-.05.24,0,.31.05,2.76,1.89,4.84,2.35,6.98,2.34,2.03,0,3.7-.5,4.99-1.49,1.31-1,1.97-2.34,1.97-3.98,0-1.26-.39-2.35-1.16-3.26-.75-.88-1.99-1.69-3.67-2.4h.01,0Z"/>
    <path class="st6" d="M962.61,573.09c.1.02.15.04.22.08.12.09.13.2.13.29h0v17.36c0,.09,0,.19-.13.28-.06.05-.12.07-.22.08v.26h5.11v-.26c-.1-.02-.15-.04-.22-.08-.12-.09-.13-.2-.13-.29v-17.35h0c0-.09,0-.2.13-.29.06-.05.12-.07.22-.08v-.26h-5.12v.26h.01Z"/>
    <path class="st6" d="M1038.46,573.09c.1.02.15.04.22.08.12.09.13.2.13.29v17.38c0,.08-.02.17-.12.25-.06.05-.12.07-.22.08v.26h5.11v-.26c-.1-.02-.15-.04-.22-.08-.12-.09-.13-.2-.13-.29h0v-17.34h0c0-.09,0-.2.13-.29.06-.05.12-.07.22-.08v-.26h-5.12v.26h0Z"/>
    <path class="st6" d="M1139.46,573.09c.1.02.15.04.22.08.12.09.13.2.13.29h0v17.34h0c0,.09,0,.2-.13.29-.06.05-.12.07-.22.08v.26h5.11v-.26c-.1-.02-.15-.04-.22-.08-.11-.08-.12-.18-.12-.26v-17.39c0-.09,0-.19.13-.28.06-.05.12-.07.22-.08v-.26h-5.12v.26h0Z"/>
    <path class="st6" d="M1174.32,573.09c.1.02.15.04.22.08.12.09.13.2.13.29h0v11.27l-11.46-11.82-.08-.09h-4.14v.26c.1.02.15.04.22.08.11.09.12.19.13.27v17.37c0,.09,0,.2-.13.29-.06.05-.12.07-.22.08v.26h5.03v-.26c-.1-.02-.15-.04-.22-.08-.12-.09-.13-.2-.13-.29h0v-11.47l11.53,12.02.08.09h4.07v-.26c-.1-.02-.15-.04-.22-.08-.12-.09-.13-.2-.13-.29v-17.35c0-.09,0-.2.13-.29.06-.05.12-.07.22-.08v-.26h-5.03v.26h0Z"/>
    <path class="st6" d="M949.81,590.84h0l-8.52-17.37c-.03-.11,0-.23.07-.3.1-.09.25-.08.27-.08v-.27h-5.6v.27s.17-.02.27.08c.08.07.1.2.07.3h0l-7.96,17.37h0s-.08.18-.21.25c-.12.07-.23.09-.31.09v.29h5.52v-.26c-.06,0-.22-.02-.29-.1-.08-.08-.08-.18-.05-.26l1.59-3.61h8.75l1.71,3.61c.03.08.03.18-.05.26-.07.08-.23.1-.29.1v.26h5.55v-.29c-.08,0-.19-.02-.31-.09s-.18-.2-.21-.25h0ZM936.22,583.7l2.62-6.07,2.88,6.07h-5.5Z"/>
    <path class="st6" d="M1122.07,573.09c.06,0,.22.02.29.1.08.08.08.19.04.28h0l-4.82,10.18-5.11-10.81h-3.62l-5.08,10.77-4.83-10.14h0c-.04-.09-.04-.19.05-.28.07-.07.23-.1.29-.1v-.26h-5.18v.29c.08,0,.19.02.31.09s.18.2.21.25h0l8.53,18.23h1.02l6.48-13.92,6.45,13.92h1.07l8.56-18.33s.08-.11.15-.15c.12-.07.23-.09.31-.09v-.29h-5.13v.26h.01Z"/>
    <path class="st6" d="M916.48,572.7c-.09.12-.2.13-.29.13h-17.41c-.09,0-.2,0-.29-.13-.05-.06-.07-.12-.08-.22h-.26v4.55h.26c.02-.1.04-.15.08-.22.09-.12.2-.13.29-.13h6.49v14.14c0,.09,0,.2-.13.29-.06.05-.12.07-.22.08v.26h5.11v-.26c-.1-.02-.15-.04-.22-.08-.12-.09-.13-.19-.13-.28v-14.15h6.49c.09,0,.2,0,.29.13.05.06.07.12.08.22h.26v-4.55h-.26c-.02.1-.04.15-.08.22h.02Z"/>
    <path class="st6" d="M1083.05,572.49h-.26c-.02.1-.04.15-.08.22-.09.12-.2.13-.29.13h-17.41c-.09,0-.2,0-.29-.13-.05-.06-.07-.12-.08-.22h-.26v4.55h.26c.02-.1.04-.15.08-.22.09-.12.2-.13.29-.13h6.5v14.14h0c0,.09,0,.2-.13.29-.06.05-.12.07-.22.08v.26h5.11v-.26c-.1-.02-.15-.04-.22-.08-.11-.08-.12-.17-.12-.25v-14.17h6.49c.09,0,.2,0,.29.13.05.06.07.12.08.22h.26v-.34h0v-3.86h0v-.35h0Z"/>
    <path class="st6" d="M1024.18,587.76c-.09.12-.2.13-.29.13h-8.67v-4h7.91c.08,0,.18.01.26.12.05.06.07.12.08.22h.26v-4.26h-.26c-.02.1-.04.15-.08.21-.09.12-.21.13-.29.13h-7.88v-3.91h8.47c.09,0,.2,0,.29.13.05.06.07.11.08.21h.26v-4.26h-.26c-.02.1-.04.15-.08.22-.09.12-.21.13-.29.13h-13.24v.26c.1.02.15.04.22.08.12.09.13.2.13.29h0v17.37c0,.08-.01.18-.12.26-.06.05-.12.07-.22.08v.26h13.43c.09,0,.2,0,.29.13.05.06.07.12.08.22h.26v-4.26h-.26c-.02.1-.04.15-.08.21v.03h0Z"/>
    <path class="st2" d="M814.42,560.9c-.57-3.04-1.52-11.42-2.66-20.36-1.52-12.18-3.24-25.69-3.81-28.93-.76-4.38-3.24-5.9-6.09-5.9s-5.52,1.52-6.09,5.9c-.57,3.43-2.09,15.61-3.62,27.4-.95,7.99-1.9,15.61-2.85,20.55-.57,3.04-3.04,5.14-6.28,5.14-5.71,0-10.28-5.71-17.89-5.71s-12.37,5.71-18.08,5.71c-3.62,0-5.9-2.47-6.28-5.71-.57-4.57-1.33-14.08-2.47-24.93-1.71-19.41-4.19-43.39-5.52-51.38-.76-4.38-3.24-5.71-6.09-5.71s-5.33,1.33-6.09,5.71c-1.33,7.99-4,32.35-6.09,51.95-1.14,10.85-2.09,20.17-3.04,24.74-1.33,7.61-6.85,8.37-13.51,8.75l-93.25,5.33v3.24l93.25,5.52c9.13.57,12.71,2.72,14.55,10.33,1.34,5.52,4.02,18.21,6.96,31.92.78,3.43,2.47,5.52,6.27,5.52s5.29-2.09,6.27-5.52c1.18-4.38,6.58-29.11,7.69-32.68,1.4-4.5,4.49-6.91,7.92-6.91,7.04,0,11.23,6.28,17.51,6.28s10.47-6.28,17.51-6.28c3.02,0,6.92.55,8.86,5.48,1.35,3.42,4.61,14.13,4.61,14.13,1.08,3.62,3.47,4.95,6.33,4.95s5.24-1.33,6.33-4.95c1.27-4,3.72-10.82,5.24-15.01,2.47-7.04,8.03-8.78,13.93-9.16l44.72-2.85v-3.24l-45.1-4.95c-8.37-.95-12.18-2.47-13.13-8.37h0Z"/>
  </g>
</svg>