<?xml version="1.0" encoding="UTF-8"?>
<svg id="_圖層_1" data-name="圖層_1" xmlns="http://www.w3.org/2000/svg" xmlns:xlink="http://www.w3.org/1999/xlink" version="1.1" viewBox="0 0 907.09 510.24">
  <!-- Generator: Adobe Illustrator 29.8.4, SVG Export Plug-In . SVG Version: 2.1.1 Build 6)  -->
  <defs>
    <style>
      .st0 {
        fill: none;
      }

      .st1 {
        fill: #c39039;
      }

      .st2 {
        clip-path: url(#clippath);
      }
    </style>
    <clipPath id="clippath">
      <rect class="st0" width="907.09" height="510.24"/>
    </clipPath>
  </defs>
  <g class="st2">
    <g>
      <path class="st1" d="M7.92-51.49v-52.27h13.68c3.5,0,6.52.46,9.04,1.37,2.52.91,4.48,2.3,5.87,4.18,1.39,1.87,2.09,4.25,2.09,7.13,0,1.82-.31,3.5-.94,5.04-.62,1.54-1.54,2.84-2.74,3.92-1.2,1.08-2.71,1.88-4.54,2.41v.36c3.46.53,6.24,1.86,8.35,4,2.11,2.14,3.17,5.03,3.17,8.68,0,3.31-.79,6.1-2.38,8.35-1.58,2.26-3.82,3.96-6.7,5.11s-6.31,1.73-10.3,1.73H7.92ZM10.58-80.58h9.43c5.71,0,9.78-.92,12.2-2.77,2.42-1.85,3.64-4.38,3.64-7.6,0-3.84-1.3-6.55-3.89-8.14-2.59-1.58-6.41-2.38-11.45-2.38h-9.94v20.88ZM10.58-53.87h11.02c5.42,0,9.72-1.02,12.89-3.06,3.17-2.04,4.75-5.24,4.75-9.61,0-3.98-1.55-6.92-4.64-8.82-3.1-1.9-7.43-2.84-13-2.84h-11.02v24.34Z"/>
      <path class="st1" d="M77.83-50.56c-2.83,0-5.42-.52-7.78-1.55-2.35-1.03-4.37-2.24-6.05-3.64l1.66-2.09c1.58,1.34,3.34,2.5,5.26,3.46,1.92.96,4.27,1.44,7.06,1.44,3.17,0,5.56-.79,7.16-2.38,1.61-1.58,2.41-3.46,2.41-5.62,0-1.68-.48-3.07-1.44-4.18-.96-1.1-2.17-2.02-3.64-2.74-1.46-.72-2.94-1.34-4.43-1.87-1.92-.72-3.79-1.49-5.62-2.3-1.82-.82-3.34-1.9-4.54-3.24-1.2-1.34-1.8-3.1-1.8-5.26,0-1.77.46-3.41,1.37-4.9.91-1.49,2.26-2.69,4.03-3.6,1.78-.91,3.96-1.37,6.55-1.37,1.92,0,3.82.36,5.69,1.08,1.87.72,3.48,1.66,4.82,2.81l-1.51,1.94c-1.25-.96-2.59-1.78-4.03-2.45-1.44-.67-3.14-1.01-5.11-1.01-3.12,0-5.42.76-6.91,2.27-1.49,1.51-2.23,3.2-2.23,5.08,0,1.49.42,2.73,1.26,3.71.84.98,1.94,1.8,3.31,2.45,1.37.65,2.8,1.26,4.28,1.84,1.54.58,3.05,1.16,4.54,1.76,1.49.6,2.83,1.31,4.03,2.12,1.2.82,2.17,1.84,2.92,3.06.74,1.22,1.12,2.77,1.12,4.64s-.48,3.61-1.44,5.22c-.96,1.61-2.35,2.89-4.18,3.85-1.82.96-4.08,1.44-6.77,1.44Z"/>
      <path class="st1" d="M100.65-51.49v-37.94h2.16l.43,6.05h.14c1.73-1.97,3.65-3.62,5.76-4.97,2.11-1.34,4.2-2.02,6.26-2.02,3.12,0,5.48.72,7.09,2.16,1.61,1.44,2.72,3.36,3.35,5.76,2.26-2.45,4.45-4.38,6.59-5.8,2.14-1.42,4.28-2.12,6.44-2.12,3.7,0,6.49,1.19,8.39,3.56,1.9,2.38,2.84,6.01,2.84,10.91v24.41h-2.52v-24.05c0-4.18-.73-7.3-2.2-9.36-1.46-2.06-3.73-3.1-6.8-3.1-1.87,0-3.77.62-5.69,1.87-1.92,1.25-4.01,3.12-6.26,5.62v29.02h-2.52v-24.05c0-4.18-.72-7.3-2.16-9.36-1.44-2.06-3.7-3.1-6.77-3.1-1.82,0-3.73.62-5.72,1.87-1.99,1.25-4.07,3.12-6.23,5.62v29.02h-2.59Z"/>
      <path class="st1" d="M172.8-50.56c-1.97,0-3.78-.36-5.44-1.08-1.66-.72-2.99-1.84-4-3.35-1.01-1.51-1.51-3.47-1.51-5.87,0-4.22,1.99-7.43,5.98-9.61,3.98-2.18,10.25-3.75,18.79-4.72.1-2.06-.08-4.07-.54-6.01-.46-1.94-1.36-3.56-2.7-4.86-1.34-1.3-3.34-1.94-5.98-1.94s-5.11.53-7.27,1.58c-2.16,1.06-3.86,2.06-5.11,3.02l-1.3-2.09c.82-.58,1.91-1.25,3.28-2.02,1.37-.77,2.95-1.44,4.75-2.02,1.8-.58,3.73-.86,5.8-.86,2.98,0,5.32.66,7.02,1.98,1.7,1.32,2.9,3.06,3.6,5.22.7,2.16,1.04,4.54,1.04,7.13v24.55h-2.16l-.36-5.04h-.22c-1.92,1.58-4.04,2.98-6.37,4.18-2.33,1.2-4.76,1.8-7.31,1.8ZM173.01-52.93c2.26,0,4.46-.54,6.62-1.62,2.16-1.08,4.49-2.68,6.98-4.79v-13.61c-5.47.58-9.83,1.4-13.07,2.48-3.24,1.08-5.56,2.4-6.95,3.96-1.39,1.56-2.09,3.42-2.09,5.58,0,2.93.84,4.99,2.52,6.19,1.68,1.2,3.67,1.8,5.98,1.8Z"/>
      <path class="st1" d="M207.14-50.56c-.82,0-1.51-.18-2.09-.54-.58-.36-1.02-.92-1.33-1.69-.31-.77-.47-1.75-.47-2.95v-52.92h2.59v53.35c0,.77.14,1.36.43,1.76.29.41.67.61,1.15.61.14,0,.31-.01.5-.04.19-.02.48-.06.86-.11l.5,2.23c-.34.05-.65.11-.94.18-.29.07-.7.11-1.22.11Z"/>
      <path class="st1" d="M225.43-50.56c-.82,0-1.51-.18-2.09-.54-.58-.36-1.02-.92-1.33-1.69-.31-.77-.47-1.75-.47-2.95v-52.92h2.59v53.35c0,.77.14,1.36.43,1.76.29.41.67.61,1.15.61.14,0,.31-.01.5-.04.19-.02.48-.06.86-.11l.5,2.23c-.34.05-.65.11-.94.18-.29.07-.7.11-1.22.11Z"/>
      <path class="st1" d="M247.82-94.4l1.87.58c-.58,2.88-1.33,5.87-2.27,8.96-.94,3.1-1.98,6.15-3.13,9.14-1.15,3-2.36,5.77-3.64,8.32-1.27,2.54-2.53,4.71-3.78,6.48-.14-.19-.31-.38-.5-.58-.19-.19-.38-.4-.58-.61-.19-.22-.38-.37-.58-.47,1.25-1.68,2.5-3.74,3.74-6.19,1.25-2.45,2.44-5.11,3.56-7.99,1.13-2.88,2.15-5.83,3.06-8.86.91-3.02,1.66-5.95,2.23-8.78ZM236.52-94.98h22.97v2.16h-22.97v-2.16ZM247.96-111.32h2.09V-46.6h-2.09v-64.73ZM249.69-87.42c.43.48,1.08,1.36,1.94,2.63.86,1.27,1.81,2.65,2.84,4.14,1.03,1.49,1.98,2.87,2.84,4.14.86,1.27,1.46,2.2,1.8,2.77l-1.58,1.87c-.38-.77-1-1.84-1.84-3.2-.84-1.37-1.74-2.81-2.7-4.32-.96-1.51-1.86-2.9-2.7-4.18-.84-1.27-1.48-2.2-1.91-2.77l1.3-1.08ZM271.36-57.97l2.3,1.01c-2.11,2.06-4.73,4.07-7.85,6.01-3.12,1.94-6.14,3.56-9.07,4.86-.14-.24-.35-.53-.61-.86-.26-.34-.52-.62-.76-.86,1.92-.86,3.91-1.85,5.98-2.95,2.06-1.1,3.98-2.28,5.76-3.53,1.77-1.25,3.19-2.47,4.25-3.67ZM257.54-88h43.27v2.16h-43.27v-2.16ZM258.62-103.69h40.97v2.09h-40.97v-2.09ZM261.57-80.65h35.06v20.74h-35.06v-20.74ZM263.66-78.56v7.13h30.89v-7.13h-30.89ZM263.66-69.28v7.27h30.89v-7.27h-30.89ZM268.84-110.32h2.09v16.42h15.84v-16.42h2.09v18.5h-20.02v-18.5ZM277.7-79.64h2.16v18.43h-2.16v-18.43ZM285.84-56.82l1.51-1.3c1.73,1.1,3.44,2.27,5.15,3.49,1.7,1.22,3.32,2.44,4.86,3.64,1.54,1.2,2.86,2.33,3.96,3.38l-1.8,1.44c-1.63-1.58-3.68-3.34-6.16-5.26-2.47-1.92-4.98-3.72-7.52-5.4Z"/>
      <path class="st1" d="M308.52-76.26h63.58v2.09h-63.58v-2.09ZM321.48-75.4h2.16v25.27l-4.25,3.53c-.1-.19-.22-.41-.36-.65-.14-.24-.3-.48-.47-.72-.17-.24-.35-.46-.54-.65.58-.29,1.3-.8,2.16-1.55.86-.74,1.3-1.84,1.3-3.28v-21.96ZM319.39-46.6v-1.94l1.58-1.44,25.92-6.98c.05.29.08.6.11.94.02.34.06.62.11.86-4.85,1.39-8.89,2.56-12.13,3.49s-5.83,1.69-7.78,2.27c-1.94.58-3.43,1.04-4.46,1.4-1.03.36-1.79.64-2.27.83-.48.19-.84.38-1.08.58ZM321.84-108.01h43.78v2.09h-41.62v30.53h-2.16v-32.62ZM322.99-97.36h40.1v2.09h-40.1v-2.09ZM322.99-86.92h40.1v2.09h-40.1v-2.09ZM337.82-75.76c2.88,7.01,7.44,12.78,13.68,17.32,6.24,4.54,13.7,7.62,22.39,9.25-.14.14-.3.33-.47.58-.17.24-.32.47-.47.68s-.26.42-.36.61c-5.76-1.25-11.03-3.12-15.8-5.62-4.78-2.5-8.93-5.6-12.46-9.32-3.53-3.72-6.32-7.98-8.39-12.78l1.87-.72ZM366.04-72.01l1.8,1.08c-1.82,1.39-3.88,2.8-6.16,4.21-2.28,1.42-4.58,2.76-6.91,4.03-2.33,1.27-4.52,2.41-6.59,3.42l-1.58-1.22c2.02-1.01,4.22-2.17,6.62-3.49,2.4-1.32,4.74-2.69,7.02-4.1,2.28-1.42,4.21-2.72,5.8-3.92Z"/>
      <path class="st1" d="M392.68-92.96l2.23.36c-.77,3.41-1.78,7-3.02,10.76-1.25,3.77-2.77,7.4-4.57,10.91-1.8,3.5-3.88,6.6-6.23,9.29-.14-.14-.32-.29-.54-.43-.22-.14-.43-.29-.65-.43-.22-.14-.42-.26-.61-.36,2.35-2.64,4.39-5.66,6.12-9.07,1.73-3.41,3.2-6.94,4.43-10.58,1.22-3.65,2.17-7.13,2.84-10.44ZM411.55-110.24h2.16v59.62c0,1.34-.23,2.28-.68,2.81-.46.53-1.16.89-2.12,1.08-.96.19-2.46.31-4.5.36-2.04.05-4.69.07-7.96.07-.05-.19-.13-.42-.25-.68-.12-.26-.24-.54-.36-.83-.12-.29-.25-.55-.4-.79,1.97.05,3.78.07,5.44.07s3.08-.01,4.28-.04c1.2-.02,2.04-.04,2.52-.04.67-.05,1.15-.2,1.44-.47.29-.26.43-.76.43-1.48v-59.69ZM428.97-92.46l1.94-.79c2.26,3.36,4.39,6.96,6.41,10.8,2.02,3.84,3.78,7.58,5.29,11.23,1.51,3.65,2.58,6.86,3.2,9.65l-2.16.94c-.62-2.78-1.67-6.01-3.13-9.68-1.46-3.67-3.2-7.44-5.22-11.3-2.02-3.86-4.13-7.48-6.34-10.84Z"/>
      <path class="st1" d="M462.38-106.72h2.16v19.15c0,3.07-.13,6.38-.4,9.94-.26,3.55-.78,7.16-1.55,10.84-.77,3.67-1.91,7.26-3.42,10.76-1.51,3.5-3.54,6.77-6.08,9.79-.1-.19-.25-.38-.47-.58-.22-.19-.42-.37-.61-.54-.19-.17-.38-.3-.58-.4,2.5-2.93,4.48-6.07,5.94-9.43,1.46-3.36,2.56-6.8,3.28-10.33s1.19-7.01,1.4-10.44c.22-3.43.32-6.66.32-9.68v-19.08ZM463.32-106.72h45.79v24.91h-45.79v-2.09h43.7v-20.66h-43.7v-2.16ZM465.48-83.17c2.93,6.1,6.88,11.51,11.84,16.24,4.97,4.73,10.78,8.65,17.42,11.77,6.65,3.12,13.96,5.4,21.92,6.84-.14.14-.3.34-.47.58-.17.24-.32.47-.47.68-.14.22-.29.42-.43.61-7.97-1.54-15.29-3.91-21.96-7.13-6.67-3.22-12.53-7.24-17.57-12.06-5.04-4.82-9.07-10.38-12.1-16.67l1.8-.86Z"/>
      <path class="st1" d="M524.52-95.12h63.58v2.16h-63.58v-2.16ZM534.09-82.52l1.73-1.08c1.92,1.87,3.8,3.94,5.65,6.19,1.85,2.26,3.52,4.49,5,6.7,1.49,2.21,2.64,4.2,3.46,5.98l-1.8,1.15c-.77-1.77-1.9-3.77-3.38-5.98-1.49-2.21-3.16-4.45-5-6.73-1.85-2.28-3.73-4.36-5.65-6.23ZM568.44-111.32h2.09v60.05c0,1.58-.28,2.69-.83,3.31-.55.62-1.43,1.01-2.63,1.15-1.2.19-3.1.31-5.69.36-2.59.05-5.88.07-9.86.07-.05-.24-.13-.49-.25-.76-.12-.26-.24-.55-.36-.86-.12-.31-.25-.59-.4-.83,2.45.05,4.74.07,6.88.07s3.97-.01,5.51-.04c1.54-.02,2.62-.04,3.24-.04.91-.05,1.52-.23,1.84-.54.31-.31.47-.92.47-1.84v-60.12Z"/>
      <path class="st1" d="M600.91-111.32h2.09v30.24c0,3.12-.06,6.23-.18,9.32-.12,3.1-.34,6.13-.65,9.11-.31,2.98-.78,5.88-1.4,8.71-.62,2.83-1.44,5.54-2.45,8.14-.14-.14-.32-.28-.54-.4-.22-.12-.44-.25-.68-.4-.24-.14-.48-.24-.72-.29,1.01-2.54,1.81-5.2,2.41-7.96.6-2.76,1.06-5.6,1.37-8.53.31-2.93.52-5.87.61-8.82.1-2.95.14-5.89.14-8.82v-30.31ZM616.1-109.52h2.16v23.11h-16.56v-2.23h14.4v-20.88ZM601.77-75.47h16.56v29.09h-2.16v-27h-14.4v-2.09ZM627.55-105.78h2.16v25.56c0,2.93-.07,5.86-.22,8.78-.14,2.93-.42,5.83-.83,8.71-.41,2.88-1.01,5.68-1.8,8.39-.79,2.71-1.84,5.32-3.13,7.81-.14-.1-.31-.22-.5-.36-.19-.14-.4-.29-.61-.43-.22-.14-.44-.26-.68-.36,1.25-2.4,2.24-4.93,2.99-7.6.74-2.66,1.31-5.39,1.69-8.17.38-2.78.64-5.59.76-8.42.12-2.83.18-5.62.18-8.35v-25.56ZM627.55-106.79h31.18v2.16h-31.18v-2.16ZM656.13-89.15h.43l.43-.07,1.3.43c-1.3,7.63-3.35,14.24-6.16,19.84-2.81,5.59-6.13,10.25-9.97,13.97-3.84,3.72-7.92,6.59-12.24,8.6-.1-.19-.22-.38-.36-.58-.14-.19-.3-.4-.47-.61-.17-.22-.35-.4-.54-.54,4.18-1.82,8.14-4.54,11.88-8.14s7-8.09,9.76-13.46c2.76-5.38,4.74-11.66,5.94-18.86v-.58ZM629.13-89.15h27.65v2.16h-27.65v-2.16ZM635.25-88c1.2,6.43,2.92,12.31,5.15,17.64,2.23,5.33,5.09,9.88,8.57,13.64,3.48,3.77,7.67,6.61,12.56,8.53-.14.14-.31.32-.5.54-.19.22-.38.43-.58.65-.19.22-.36.42-.5.61-4.94-2.11-9.17-5.12-12.67-9.04-3.5-3.91-6.38-8.58-8.64-14-2.26-5.42-4.01-11.47-5.26-18.14l1.87-.43Z"/>
      <path class="st1" d="M690.4-89.22l-1.73-1.22,4.25-6.91-7.06-2.66.72-2.02,7.27,2.09.5-7.99h2.16l.5,7.85,7.27-1.94.65,2.02-6.98,2.66,4.32,6.91-1.8,1.22-4.97-6.48-5.11,6.48Z"/>
      <path class="st1" d="M718.34-66.18l2.16.43c-.48,3.02-1.09,6.11-1.84,9.25-.74,3.14-1.5,5.84-2.27,8.1-.19-.1-.5-.24-.94-.43-.43-.19-.79-.34-1.08-.43.86-2.3,1.62-4.97,2.27-7.99.65-3.02,1.21-6,1.69-8.93ZM715.24-85.98c-.05-.19-.12-.44-.22-.76-.1-.31-.19-.62-.29-.94-.1-.31-.19-.56-.29-.76.53-.1,1.1-.52,1.73-1.26.62-.74,1.32-1.69,2.09-2.84.58-.72,1.46-2.05,2.66-4,1.2-1.94,2.51-4.22,3.92-6.84,1.42-2.62,2.68-5.27,3.78-7.96l2.23,1.01c-2.02,4.18-4.19,8.27-6.52,12.28-2.33,4.01-4.72,7.5-7.16,10.48-.38.19-.71.37-.97.54-.26.17-.49.34-.68.5-.19.17-.29.35-.29.54ZM715.6-70.21c0-.19-.05-.43-.14-.72-.1-.29-.19-.59-.29-.9-.1-.31-.19-.56-.29-.76.58-.1,1.27-.6,2.09-1.51.82-.91,1.75-2.04,2.81-3.38.58-.67,1.42-1.76,2.52-3.28,1.1-1.51,2.34-3.3,3.71-5.36,1.37-2.06,2.77-4.3,4.21-6.7,1.44-2.4,2.76-4.8,3.96-7.2l2.16,1.01c-1.87,3.36-3.84,6.68-5.9,9.97-2.06,3.29-4.18,6.4-6.34,9.32-2.16,2.93-4.32,5.59-6.48,7.99v.07c-.38.14-.72.29-1.01.43s-.53.3-.72.47c-.19.17-.29.35-.29.54ZM715.24-85.98v-2.02l1.58-.86,12.53-1.3c-.05.34-.07.68-.07,1.04v.9c-2.88.38-5.21.7-6.98.94-1.78.24-3.13.43-4.07.58-.94.14-1.61.28-2.02.4-.41.12-.73.23-.97.32ZM715.6-70.21v-1.94l1.73-1.08,20.09-2.81c-.05.29-.06.62-.04,1.01.02.38.06.7.11.94-4.7.72-8.45,1.31-11.23,1.76-2.78.46-4.9.8-6.34,1.04-1.44.24-2.45.44-3.02.61-.58.17-1.01.32-1.3.47ZM725.68-66.04l2.02-.29c.48,2.5.92,5.2,1.33,8.1.41,2.9.66,5.41.76,7.52l-2.16.36c-.05-2.11-.26-4.63-.65-7.56-.38-2.93-.82-5.64-1.3-8.14ZM732.88-84.25l2.02-.5c.77,1.54,1.49,3.17,2.16,4.9.67,1.73,1.27,3.4,1.8,5,.53,1.61.94,3.01,1.22,4.21l-2.09.72c-.29-1.2-.7-2.63-1.22-4.28-.53-1.66-1.13-3.36-1.8-5.11-.67-1.75-1.37-3.4-2.09-4.93ZM733.67-67.33l1.87-.5c.91,2.26,1.79,4.72,2.63,7.38.84,2.66,1.45,4.96,1.84,6.88l-1.94.58c-.38-1.97-1.01-4.28-1.87-6.95-.86-2.66-1.7-5.12-2.52-7.38ZM742.17-107.51h34.42v2.09h-32.26v59.11h-2.16v-61.2ZM746.63-89.36h27v2.09h-27v-2.09ZM747.93-78.13h24.19v2.16h-24.19v-2.16ZM750.45-102.04l1.8-.65c1.1,1.68,2.1,3.56,2.99,5.65.89,2.09,1.5,3.88,1.84,5.36l-1.94.79c-.34-1.54-.95-3.35-1.84-5.44-.89-2.09-1.84-4-2.84-5.72ZM751.03-77.41h2.09v11.3c0,1.06.13,1.76.4,2.12.26.36.85.54,1.76.54h12.67c.67,0,1.45-.01,2.34-.04.89-.02,1.62-.08,2.2-.18.05.34.1.72.14,1.15.05.43.1.77.14,1.01-.43.1-1.09.16-1.98.18-.89.02-1.81.04-2.77.04h-12.67c-1.1,0-1.98-.14-2.63-.43-.65-.29-1.09-.79-1.33-1.51-.24-.72-.36-1.7-.36-2.95v-11.23ZM756.21-86.12l1.66-.94c.77,1.2,1.55,2.54,2.34,4.03.79,1.49,1.38,2.74,1.76,3.74l-1.8,1.08c-.38-1.1-.95-2.4-1.69-3.89-.75-1.49-1.5-2.83-2.27-4.03ZM767.23-102.54l2.23.86c-.77,2.26-1.61,4.68-2.52,7.27-.91,2.59-1.8,4.78-2.66,6.55l-1.66-.79c.53-1.2,1.08-2.63,1.66-4.28.58-1.66,1.14-3.34,1.69-5.04.55-1.7.97-3.23,1.26-4.57ZM775.43-107.51h2.09v57.38c0,1.01-.14,1.75-.43,2.23-.29.48-.77.84-1.44,1.08-.67.19-1.7.31-3.1.36-1.39.05-3.14.05-5.26,0-.05-.24-.16-.6-.32-1.08-.17-.48-.35-.89-.54-1.22,1.82.05,3.46.07,4.9.07h2.88c.48-.05.8-.17.97-.36.17-.19.25-.53.25-1.01v-57.46Z"/>
      <path class="st1" d="M809.49-57.61l2.38,1.08c-2.02,1.34-4.37,2.64-7.06,3.89-2.69,1.25-5.47,2.41-8.35,3.49-2.88,1.08-5.64,2-8.28,2.77-.14-.24-.37-.54-.68-.9s-.59-.64-.83-.83c2.64-.77,5.41-1.67,8.32-2.7,2.9-1.03,5.64-2.14,8.21-3.31,2.57-1.18,4.67-2.34,6.3-3.49ZM788.97-107.15h59.83v2.09h-59.83v-2.09ZM796.6-96.28h46.22v36.07h-46.22v-36.07ZM798.76-94.19v9.07h41.98v-9.07h-41.98ZM798.76-82.96v9.22h41.98v-9.22h-41.98ZM798.76-71.58v9.29h41.98v-9.29h-41.98ZM818.06-106.79l2.23.5c-.53,1.87-1.11,3.84-1.73,5.9-.62,2.06-1.2,3.84-1.73,5.33l-1.87-.58c.58-1.49,1.15-3.31,1.73-5.47.58-2.16,1.03-4.06,1.37-5.69ZM826.05-55.96l1.22-1.44c2.93.91,5.83,1.92,8.71,3.02,2.88,1.1,5.59,2.21,8.14,3.31,2.54,1.1,4.75,2.14,6.62,3.1l-1.51,1.66c-1.82-1.01-3.97-2.06-6.44-3.17-2.47-1.1-5.14-2.21-7.99-3.31-2.86-1.1-5.77-2.16-8.75-3.17Z"/>
      <path class="st1" d="M871.27-92.96l2.23.36c-.77,3.41-1.78,7-3.02,10.76-1.25,3.77-2.77,7.4-4.57,10.91-1.8,3.5-3.88,6.6-6.23,9.29-.14-.14-.32-.29-.54-.43s-.43-.29-.65-.43-.42-.26-.61-.36c2.35-2.64,4.39-5.66,6.12-9.07,1.73-3.41,3.2-6.94,4.43-10.58,1.22-3.65,2.17-7.13,2.84-10.44ZM890.13-110.24h2.16v59.62c0,1.34-.23,2.28-.68,2.81-.46.53-1.16.89-2.12,1.08-.96.19-2.46.31-4.5.36-2.04.05-4.69.07-7.96.07-.05-.19-.13-.42-.25-.68-.12-.26-.24-.54-.36-.83-.12-.29-.25-.55-.4-.79,1.97.05,3.78.07,5.44.07s3.08-.01,4.28-.04c1.2-.02,2.04-.04,2.52-.04.67-.05,1.15-.2,1.44-.47.29-.26.43-.76.43-1.48v-59.69ZM907.55-92.46l1.94-.79c2.25,3.36,4.39,6.96,6.41,10.8,2.02,3.84,3.78,7.58,5.29,11.23,1.51,3.65,2.58,6.86,3.2,9.65l-2.16.94c-.62-2.78-1.67-6.01-3.13-9.68-1.46-3.67-3.2-7.44-5.22-11.3-2.02-3.86-4.13-7.48-6.34-10.84Z"/>
      <path class="st1" d="M932.25-72.16h60.98v2.09h-60.98v-2.09ZM933.55-103.04h58.68v13.1h-2.16v-10.94h-54.36v10.94h-2.16v-13.1ZM943.55-90.44h36.94v2.09h-36.94v-2.09ZM961.84-77.34h2.16v27.43c0,.91-.17,1.6-.5,2.05-.34.46-.91.8-1.73,1.04-.77.19-1.98.3-3.64.32-1.66.02-4.04.04-7.16.04-.05-.19-.13-.4-.25-.61-.12-.22-.24-.44-.36-.68-.12-.24-.25-.46-.4-.65,1.78,0,3.37.01,4.79.04,1.42.02,2.6.02,3.56,0,.96-.02,1.63-.04,2.02-.04.58-.05.97-.18,1.19-.4.22-.22.32-.56.32-1.04v-27.5ZM958.75-110.96l1.87-.79c1.1,1.39,2.16,2.95,3.17,4.68,1.01,1.73,1.75,3.22,2.23,4.46l-2.02.94c-.43-1.3-1.14-2.82-2.12-4.57-.98-1.75-2.03-3.32-3.13-4.72ZM979.91-90.44h.5l.5-.14,1.51,1.08c-1.63,1.68-3.54,3.36-5.72,5.04-2.19,1.68-4.44,3.25-6.77,4.72-2.33,1.46-4.55,2.72-6.66,3.78-.19-.24-.42-.49-.68-.76-.26-.26-.52-.47-.76-.61,2.11-1.01,4.29-2.21,6.55-3.6,2.26-1.39,4.39-2.87,6.41-4.43,2.02-1.56,3.72-3.08,5.11-4.57v-.5Z"/>
      <path class="st1" d="M1010.73-106h2.09v26.35c0,2.59-.11,5.35-.32,8.28-.22,2.93-.64,5.88-1.26,8.86-.62,2.98-1.56,5.86-2.81,8.64-1.25,2.78-2.93,5.38-5.04,7.78-.1-.19-.24-.38-.43-.58-.19-.19-.38-.37-.58-.54-.19-.17-.38-.3-.58-.4,2.02-2.3,3.62-4.79,4.82-7.45,1.2-2.66,2.09-5.4,2.66-8.21.58-2.81.96-5.6,1.15-8.39.19-2.78.29-5.45.29-7.99v-26.35ZM1011.23-71.58h49.25v2.09h-49.25v-2.09ZM1011.88-106h48.96v2.16h-48.96v-2.16ZM1011.88-89h48.6v2.16h-48.6v-2.16ZM1033.77-105.35h2.16v58.46h-2.16v-58.46ZM1059.55-106h2.09v55.01c0,1.2-.21,2.09-.61,2.66-.41.58-1.09.98-2.05,1.22-.91.19-2.41.3-4.5.32-2.09.02-4.91.01-8.46-.04-.05-.24-.17-.58-.36-1.01-.19-.43-.38-.82-.58-1.15,2.02.05,3.89.07,5.62.07s3.19-.01,4.39-.04c1.2-.02,2.04-.04,2.52-.04.72-.05,1.22-.2,1.51-.47.29-.26.43-.76.43-1.48v-55.08Z"/>
    </g>
    <path d="M500.93,269.57h-3.95s-5.12,0-5.12,0v.26c.1.02.15.04.22.08.11.08.12.18.12.27v17.45c0,.07-.02.16-.12.23-.06.05-.12.07-.21.08v.26h5.12v-.26c-.1-.02-.15-.04-.22-.08-.12-.09-.13-.21-.13-.29h0v-5.77h4.16c3.84,0,6.76-1.8,6.76-6.11,0-2.63-1.27-6.12-6.62-6.12M499.97,278.23h-3.34v-5.08h3.07c2.22,0,3.3,1.02,3.3,2.52,0,1.92-1.53,2.56-3.02,2.56"/>
    <path d="M711.97,277.31c-2.38-.98-3.1-1.32-3.29-1.44-.93-.52-1.17-1.04-1.1-1.72.05-.53.51-1.49,3.06-1.36,1.39.07,2.75.77,4.13,1.85.07.05.13.11.16.23.01.07,0,.15-.03.25l.24.12,2.03-3.86-.24-.12c-.06.08-.1.12-.17.16-.13.07-.23.03-.31-.01-2.09-1.73-4.45-2.28-6.43-2.28-2.11,0-3.76.5-5.06,1.43-1.33.95-2.08,2.44-2.08,4.04,0,1.21.42,2.28,1.24,3.19.81.89,2.03,1.67,3.64,2.33,1.33.57,2.17,1.04,3,1.45.93.48,1.29.9,1.28,1.63-.02,1.42-1.79,1.64-2.97,1.57-1.41-.08-2.7-.6-4.42-1.87-.04-.04-.08-.1-.09-.19,0-.08,0-.13.04-.23l-.22-.14-2.25,3.71.22.14c.07-.08.11-.11.19-.14.14-.05.24,0,.31.05,2.76,1.89,4.85,2.36,6.99,2.35,2.03-.01,3.71-.5,4.99-1.49,1.31-1,1.97-2.34,1.97-3.98,0-1.26-.39-2.36-1.16-3.26-.75-.88-1.99-1.69-3.67-2.4"/>
    <path d="M472.31,269.84c.1.02.15.04.21.08.12.09.13.21.13.29h0v17.37c0,.09,0,.19-.13.28-.06.05-.11.07-.21.08v.26h5.12v-.26c-.1-.02-.15-.04-.21-.08-.12-.09-.13-.2-.13-.29v-17.36h0c0-.09,0-.2.13-.29.06-.05.12-.07.22-.08v-.26h-5.12v.26Z"/>
    <path d="M548.23,269.84c.1.02.16.04.22.08.12.09.13.21.13.29v17.4c0,.08-.02.17-.12.25-.06.05-.11.07-.22.08v.26h5.12v-.26c-.1-.02-.15-.04-.22-.08-.12-.09-.13-.2-.13-.29h0v-17.36h0c0-.09,0-.2.13-.29.06-.05.12-.07.22-.08v-.26h-5.12v.26Z"/>
    <path d="M649.32,269.84c.1.02.15.04.22.08.12.09.13.21.13.29h0v17.36h0c0,.09,0,.2-.13.29-.06.05-.12.07-.22.08v.26h5.12v-.26c-.1-.02-.16-.04-.22-.08-.11-.08-.12-.18-.12-.26v-17.4c0-.09,0-.19.13-.28.06-.05.12-.07.22-.08v-.26h-5.12v.26Z"/>
    <path d="M684.21,269.84c.1.02.15.04.22.08.12.09.13.21.13.29h0v11.28l-11.47-11.83-.08-.08h-.02s-4.12,0-4.12,0v.26c.1.02.15.04.22.08.11.09.12.19.12.27v17.39c0,.09,0,.2-.13.29-.06.05-.11.07-.22.08v.26h5.04v-.26c-.1-.02-.15-.04-.22-.08-.12-.09-.13-.2-.13-.29h0v-11.48l11.54,12.04.08.09h4.07v-.26c-.1-.02-.16-.04-.22-.08-.12-.09-.13-.2-.13-.29v-17.36c0-.09,0-.2.13-.29.06-.05.12-.07.22-.08v-.26h-5.04v.26Z"/>
    <path d="M459.49,287.6h0l-8.53-17.38c-.03-.11,0-.23.07-.3.1-.09.25-.08.27-.08v-.27h-5.61v.27s.17-.02.27.08c.08.07.11.2.07.3h0l-7.96,17.38h0c-.02.05-.08.18-.21.25-.12.07-.23.09-.31.09v.29h5.52v-.26c-.06,0-.22-.02-.29-.1-.08-.08-.08-.18-.05-.26l1.59-3.61h8.75l1.72,3.62c.03.08.03.18-.05.26-.07.07-.23.1-.29.1v.26h5.55v-.29c-.08,0-.19-.02-.31-.09-.12-.07-.18-.2-.21-.25M445.89,280.45l2.62-6.07,2.88,6.07h-5.5Z"/>
    <path d="M631.91,269.83c.05,0,.22.02.29.1.08.08.08.19.04.28h0l-4.82,10.19-5.11-10.82h-3.63l-5.09,10.78-4.83-10.15h0c-.04-.09-.03-.19.04-.28.07-.08.24-.1.29-.1v-.26h-5.19v.29c.08,0,.19.02.31.09.12.07.18.2.21.25h0l8.54,18.25h1.03l6.48-13.94,6.45,13.94h1.07l8.57-18.35c.03-.05.08-.11.15-.15.12-.07.23-.09.31-.09v-.29h-5.13v.26Z"/>
    <path d="M426.13,269.45c-.09.12-.2.13-.29.13h0s-17.43,0-17.43,0h0c-.09,0-.2,0-.29-.13-.05-.06-.07-.12-.08-.22h-.26v4.56h.26c.02-.1.04-.15.08-.22.09-.12.2-.13.29-.13h6.5v14.15c0,.09,0,.2-.13.29-.06.05-.11.07-.22.08v.26h5.12v-.26c-.1-.02-.15-.04-.22-.08-.12-.09-.12-.19-.13-.28v-14.16h6.5c.09,0,.2,0,.29.13.05.06.07.12.08.22h.26v-4.56h-.26c-.02.1-.04.15-.08.22"/>
    <path d="M592.86,269.23h-.26c-.02.1-.04.15-.08.22-.09.12-.2.13-.29.13h0s-17.43,0-17.43,0h0c-.09,0-.2,0-.29-.13-.05-.06-.07-.12-.08-.22h-.26v4.56h.26c.02-.1.04-.15.08-.22.09-.12.2-.13.29-.13h6.5v14.15h0c0,.09,0,.2-.13.29-.06.05-.11.07-.22.08v.26h5.12v-.26c-.1-.02-.15-.04-.22-.08-.11-.08-.12-.17-.12-.26v-14.19h6.5c.09,0,.2,0,.29.13.05.06.07.12.08.22h.26v-.34h0v-3.87h0v-.35Z"/>
    <path d="M533.93,284.51c-.09.12-.2.13-.29.13h-8.68v-4h7.92c.08,0,.17.01.26.12.05.06.07.12.08.22h.26v-4.26h-.26c-.02.1-.04.15-.08.21-.09.12-.21.13-.29.13h0s-7.88,0-7.88,0v-3.91h8.47c.09,0,.2,0,.29.13.05.06.07.11.08.21h.27v-4.26h-.27c-.01.1-.04.15-.08.22-.09.12-.2.13-.29.13h0s-8.13,0-8.13,0h0s-5.12,0-5.12,0v.26c.1.02.15.04.22.08.12.09.13.21.13.29h0v17.39c0,.08-.01.18-.12.26-.06.05-.12.07-.22.08v.26h13.45c.09,0,.2,0,.29.13.05.06.07.12.08.22h.26v-4.26h-.26c-.02.1-.04.15-.08.21"/>
    <path d="M345.34,260.62c-.42-2.26-1.13-8.46-1.97-15.09-1.13-9.03-2.4-19.04-2.82-21.44-.56-3.24-2.4-4.37-4.51-4.37s-4.09,1.13-4.51,4.37c-.42,2.54-1.55,11.56-2.68,20.31-.7,5.92-1.41,11.56-2.12,15.23-.42,2.26-2.26,3.81-4.65,3.81-4.23,0-7.62-4.23-13.26-4.23s-9.17,4.23-13.4,4.23c-2.68,0-4.37-1.83-4.65-4.23-.42-3.38-.99-10.44-1.83-18.47-1.27-14.39-3.1-32.15-4.09-38.08-.56-3.24-2.4-4.23-4.51-4.23s-3.95.99-4.51,4.23c-.99,5.92-2.96,23.97-4.51,38.5-.85,8.04-1.55,14.95-2.26,18.33-.99,5.64-5.08,6.21-10.01,6.49l-69.1,3.95v2.4l69.1,4.09c6.77.42,9.41,2.02,10.78,7.66.99,4.09,2.98,13.5,5.16,23.65.58,2.54,1.83,4.09,4.65,4.09s3.92-1.55,4.65-4.09c.87-3.24,4.88-21.57,5.7-24.21,1.04-3.33,3.33-5.12,5.87-5.12,5.22,0,8.32,4.65,12.97,4.65s7.76-4.65,12.97-4.65c2.24,0,5.13.41,6.56,4.06,1,2.53,3.41,10.47,3.41,10.47.8,2.68,2.57,3.67,4.69,3.67s3.89-.99,4.69-3.67c.94-2.96,2.76-8.02,3.89-11.12,1.83-5.22,5.95-6.5,10.32-6.79l33.14-2.12v-2.4l-33.42-3.67c-6.2-.71-9.03-1.83-9.73-6.21"/>
  </g>
</svg>