<svg width="565" height="149" viewBox="0 0 565 149" fill="none" xmlns="http://www.w3.org/2000/svg">
<g clip-path="url(#clip0_2253_174)">
<path d="M539.97 96.3099C537.59 95.3299 536.87 94.9899 536.68 94.8699C535.75 94.3499 535.51 93.8299 535.58 93.1499C535.63 92.6199 536.09 91.6599 538.64 91.7899C540.03 91.8599 541.39 92.5599 542.77 93.6399C542.84 93.6899 542.9 93.7499 542.93 93.8699C542.94 93.9399 542.93 94.0199 542.9 94.1199L543.14 94.2399L545.17 90.3799L544.93 90.2599C544.87 90.3399 544.83 90.3799 544.76 90.4199C544.63 90.4899 544.53 90.4499 544.45 90.4099C542.36 88.6799 540 88.1299 538.02 88.1299C535.91 88.1299 534.26 88.6299 532.96 89.5599C531.63 90.5099 530.88 91.9999 530.88 93.5999C530.88 94.8099 531.3 95.8799 532.12 96.7899C532.93 97.6799 534.15 98.4599 535.76 99.1199C537.09 99.6899 537.93 100.16 538.76 100.57C539.69 101.05 540.05 101.47 540.04 102.2C540.02 103.62 538.25 103.84 537.07 103.77C535.66 103.69 534.37 103.17 532.65 101.9C532.61 101.86 532.57 101.8 532.56 101.71C532.56 101.63 532.56 101.58 532.6 101.48L532.38 101.34L530.13 105.05L530.35 105.19C530.42 105.11 530.46 105.08 530.54 105.05C530.68 105 530.78 105.05 530.85 105.1C533.61 106.99 535.7 107.46 537.84 107.45C539.87 107.44 541.55 106.95 542.83 105.96C544.14 104.96 544.8 103.62 544.8 101.98C544.8 100.72 544.41 99.6199 543.64 98.7199C542.89 97.8399 541.65 97.0299 539.97 96.3199" fill="black"/>
<path d="M512.21 88.8401C512.31 88.8601 512.36 88.8801 512.43 88.9201C512.55 89.0101 512.56 89.1301 512.56 89.2101V100.49L501.09 88.6601L501.01 88.5801H500.99H496.87V88.8401C496.97 88.8601 497.02 88.8801 497.09 88.9201C497.2 89.0101 497.21 89.1101 497.21 89.1901V106.58C497.21 106.67 497.21 106.78 497.08 106.87C497.02 106.92 496.97 106.94 496.86 106.95V107.21H501.9V106.95C501.8 106.93 501.75 106.91 501.68 106.87C501.56 106.78 501.55 106.67 501.55 106.58V95.1001L513.09 107.14L513.17 107.23H517.24V106.97C517.14 106.95 517.08 106.93 517.02 106.89C516.9 106.8 516.89 106.69 516.89 106.6V89.2401C516.89 89.1501 516.89 89.0401 517.02 88.9501C517.08 88.9001 517.14 88.8801 517.24 88.8701V88.6101H512.2V88.8701L512.21 88.8401Z" fill="black"/>
<path d="M477.32 88.8401C477.42 88.8601 477.47 88.8801 477.54 88.9201C477.66 89.0101 477.67 89.1301 477.67 89.2101V106.57C477.67 106.66 477.67 106.77 477.54 106.86C477.48 106.91 477.42 106.93 477.32 106.94V107.2H482.44V106.94C482.34 106.92 482.28 106.9 482.22 106.86C482.11 106.78 482.1 106.68 482.1 106.6V89.2001C482.1 89.1101 482.1 89.0101 482.23 88.9201C482.29 88.8701 482.35 88.8501 482.45 88.8401V88.5801H477.33V88.8401H477.32Z" fill="black"/>
<path d="M459.91 88.8303C459.96 88.8303 460.13 88.8503 460.2 88.9303C460.28 89.0103 460.28 89.1203 460.24 89.2103L455.42 99.4003L450.31 88.5803H446.68L441.59 99.3603L436.76 89.2103C436.72 89.1203 436.73 89.0203 436.8 88.9303C436.87 88.8503 437.04 88.8303 437.09 88.8303V88.5703H431.9V88.8603C431.98 88.8603 432.09 88.8803 432.21 88.9503C432.33 89.0203 432.39 89.1503 432.42 89.2003L440.96 107.45H441.99L448.47 93.5103L454.92 107.45H455.99L464.56 89.1003C464.59 89.0503 464.64 88.9903 464.71 88.9503C464.83 88.8803 464.94 88.8603 465.02 88.8603V88.5703H459.89V88.8303H459.91Z" fill="black"/>
<path d="M420.86 88.2297H420.6C420.58 88.3297 420.56 88.3797 420.52 88.4497C420.43 88.5697 420.32 88.5797 420.23 88.5797H402.8C402.71 88.5797 402.6 88.5797 402.51 88.4497C402.46 88.3897 402.44 88.3297 402.43 88.2297H402.17V92.7897H402.43C402.45 92.6897 402.47 92.6397 402.51 92.5697C402.6 92.4497 402.71 92.4397 402.8 92.4397H409.3V106.59C409.3 106.68 409.3 106.79 409.17 106.88C409.11 106.93 409.06 106.95 408.95 106.96V107.22H414.07V106.96C413.97 106.94 413.92 106.92 413.85 106.88C413.74 106.8 413.73 106.71 413.73 106.62V92.4297H420.23C420.32 92.4297 420.43 92.4297 420.52 92.5597C420.57 92.6197 420.59 92.6797 420.6 92.7797H420.86V92.4397V88.5697V88.2197V88.2297Z" fill="black"/>
<path d="M376.23 88.8401C376.33 88.8601 376.39 88.8801 376.45 88.9201C376.57 89.0101 376.58 89.1301 376.58 89.2101V106.61C376.58 106.69 376.56 106.78 376.46 106.86C376.4 106.91 376.35 106.93 376.24 106.94V107.2H381.36V106.94C381.26 106.92 381.21 106.9 381.14 106.86C381.02 106.77 381.01 106.66 381.01 106.57V89.2101C381.01 89.1201 381.01 89.0101 381.14 88.9201C381.2 88.8701 381.26 88.8501 381.36 88.8401V88.5801H376.24V88.8401H376.23Z" fill="black"/>
<path d="M361.93 103.51C361.84 103.63 361.73 103.64 361.64 103.64H352.96V99.6405H360.88C360.96 99.6405 361.05 99.6505 361.14 99.7605C361.19 99.8205 361.21 99.8805 361.22 99.9805H361.48V95.7205H361.22C361.2 95.8205 361.18 95.8705 361.14 95.9305C361.05 96.0505 360.93 96.0605 360.85 96.0605H352.97V92.1505H361.44C361.53 92.1505 361.64 92.1505 361.73 92.2805C361.78 92.3405 361.8 92.3904 361.81 92.4904H362.08V88.2305H361.81C361.8 88.3305 361.77 88.3805 361.73 88.4505C361.64 88.5705 361.53 88.5804 361.44 88.5804H353.31H348.19V88.8405C348.29 88.8605 348.34 88.8805 348.41 88.9205C348.53 89.0105 348.54 89.1304 348.54 89.2104V106.6C348.54 106.68 348.53 106.78 348.42 106.86C348.36 106.91 348.3 106.93 348.2 106.94V107.2H361.65C361.74 107.2 361.85 107.2 361.94 107.33C361.99 107.39 362.01 107.45 362.02 107.55H362.28V103.29H362.02C362 103.39 361.98 103.44 361.94 103.5" fill="black"/>
<path d="M328.93 88.5703H324.98H319.86V88.8303C319.96 88.8503 320.01 88.8703 320.08 88.9103C320.19 88.9903 320.2 89.0903 320.2 89.1803V106.63C320.2 106.7 320.18 106.79 320.08 106.86C320.02 106.91 319.96 106.93 319.87 106.94V107.2H324.99V106.94C324.89 106.92 324.84 106.9 324.77 106.86C324.65 106.77 324.64 106.65 324.64 106.57V100.8H328.8C332.64 100.8 335.56 99.0003 335.56 94.6903C335.56 92.0603 334.29 88.5703 328.94 88.5703M327.97 97.2303H324.63V92.1503H327.7C329.92 92.1503 331 93.1703 331 94.6703C331 96.5903 329.47 97.2303 327.98 97.2303" fill="black"/>
<path d="M300.31 88.8401C300.41 88.8601 300.46 88.8801 300.52 88.9201C300.64 89.0101 300.65 89.1301 300.65 89.2101V106.58C300.65 106.67 300.65 106.77 300.52 106.86C300.46 106.91 300.41 106.93 300.31 106.94V107.2H305.43V106.94C305.33 106.92 305.28 106.9 305.22 106.86C305.1 106.77 305.09 106.66 305.09 106.57V89.2101C305.09 89.1201 305.09 89.0101 305.22 88.9201C305.28 88.8701 305.34 88.8501 305.44 88.8401V88.5801H300.32V88.8401H300.31Z" fill="black"/>
<path d="M287.49 106.6L278.96 89.2203C278.93 89.1103 278.96 88.9903 279.03 88.9203C279.13 88.8303 279.28 88.8403 279.3 88.8403V88.5703H273.69V88.8403C273.69 88.8403 273.86 88.8203 273.96 88.9203C274.04 88.9903 274.07 89.1203 274.03 89.2203L266.07 106.6C266.05 106.65 265.99 106.78 265.86 106.85C265.74 106.92 265.63 106.94 265.55 106.94V107.23H271.07V106.97C271.01 106.97 270.85 106.95 270.78 106.87C270.7 106.79 270.7 106.69 270.73 106.61L272.32 103H281.07L282.79 106.62C282.82 106.7 282.82 106.8 282.74 106.88C282.67 106.95 282.51 106.98 282.45 106.98V107.24H288V106.95C287.92 106.95 287.81 106.93 287.69 106.86C287.57 106.79 287.51 106.66 287.48 106.61M273.89 99.4503L276.51 93.3803L279.39 99.4503H273.89Z" fill="black"/>
<path d="M254.13 88.4505C254.04 88.5705 253.93 88.5804 253.84 88.5804H236.41C236.32 88.5804 236.21 88.5805 236.12 88.4505C236.07 88.3905 236.05 88.3305 236.04 88.2305H235.78V92.7905H236.04C236.06 92.6905 236.08 92.6405 236.12 92.5705C236.21 92.4505 236.32 92.4405 236.41 92.4405H242.91V106.59C242.91 106.68 242.91 106.79 242.78 106.88C242.72 106.93 242.67 106.95 242.56 106.96V107.22H247.68V106.96C247.58 106.94 247.53 106.92 247.46 106.88C247.34 106.79 247.34 106.69 247.33 106.6V92.4405H253.83C253.92 92.4405 254.03 92.4405 254.12 92.5705C254.17 92.6305 254.19 92.6905 254.2 92.7905H254.46V88.2305H254.2C254.18 88.3305 254.16 88.3805 254.12 88.4505" fill="black"/>
<path d="M173.34 79.6197C172.92 77.3597 172.21 71.1597 171.37 64.5297C170.24 55.4997 168.97 45.4897 168.55 43.0897C167.99 39.8497 166.15 38.7197 164.04 38.7197C161.93 38.7197 159.95 39.8497 159.53 43.0897C159.11 45.6297 157.98 54.6497 156.85 63.3997C156.15 69.3197 155.44 74.9597 154.73 78.6297C154.31 80.8897 152.47 82.4397 150.08 82.4397C145.85 82.4397 142.46 78.2097 136.82 78.2097C131.18 78.2097 127.65 82.4397 123.42 82.4397C120.74 82.4397 119.05 80.6097 118.77 78.2097C118.35 74.8297 117.78 67.7697 116.94 59.7397C115.67 45.3497 113.84 27.5897 112.85 21.6597C112.29 18.4197 110.45 17.4297 108.34 17.4297C106.23 17.4297 104.39 18.4197 103.83 21.6597C102.84 27.5797 100.87 45.6297 99.3197 60.1597C98.4697 68.1997 97.7697 75.1097 97.0597 78.4897C96.0697 84.1297 91.9797 84.6997 87.0497 84.9797L17.9497 88.9297V91.3297L87.0497 95.4197C93.8197 95.8397 96.4597 97.4397 97.8297 103.08C98.8197 107.17 100.81 116.58 102.99 126.73C103.57 129.27 104.82 130.82 107.64 130.82C110.46 130.82 111.56 129.27 112.29 126.73C113.16 123.49 117.17 105.16 117.99 102.52C119.03 99.1897 121.32 97.3997 123.86 97.3997C129.08 97.3997 132.18 102.05 136.83 102.05C141.48 102.05 144.59 97.3997 149.8 97.3997C152.04 97.3997 154.93 97.8097 156.36 101.46C157.36 103.99 159.77 111.93 159.77 111.93C160.57 114.61 162.34 115.6 164.46 115.6C166.58 115.6 168.35 114.61 169.15 111.93C170.09 108.97 171.91 103.91 173.04 100.81C174.87 95.5897 178.99 94.3097 183.36 94.0197L216.5 91.8997V89.4997L183.08 85.8297C176.88 85.1197 174.05 83.9997 173.35 79.6197" fill="black"/>
</g>
<defs>
<clipPath id="clip0_2253_174">
<rect width="565" height="149" fill="white"/>
</clipPath>
</defs>
</svg>
